<svg xmlns="http://www.w3.org/2000/svg" width="76" height="76">
  <path fill="#333" fill-rule="nonzero" d="M50.35965 8.64034995C60.5511274 18.8318273 61.7268058 34.6250041 53.8866852 46.1088941l20.5024021 20.5020186c2.1478836 2.1478836 2.1478836 5.630291 0 7.7781746s-5.630291 2.1478836-7.7781746 0L46.1088941 53.8866852c-11.48389 7.8401206-27.2770668 6.6644422-37.46854415-3.5270352-11.5204666-11.5204666-11.5204666-30.1988334 0-41.71930005 11.52046665-11.5204666 30.19883345-11.5204666 41.71930005 0ZM16.4185245 16.4185245c-7.22469935 7.2246994-7.22469935 18.9382516 0 26.162951 7.2246994 7.2246993 18.9382516 7.2246993 26.162951 0 7.2246993-7.2246994 7.2246993-18.9382516 0-26.162951-7.2246994-7.22469935-18.9382516-7.22469935-26.162951 0Z"/>
</svg>
