<svg xmlns="http://www.w3.org/2000/svg" xmlns:xlink="http://www.w3.org/1999/xlink" width="128" height="128">
  <defs>
    <filter id="b" width="121.9%" height="121.9%" x="-10.9%" y="-10.9%" filterUnits="objectBoundingBox">
      <feMorphology in="SourceAlpha" radius="4" result="shadowSpreadInner1"/>
      <feGaussianBlur in="shadowSpreadInner1" result="shadowBlurInner1" stdDeviation="8.5"/>
      <feOffset dx="6" dy="7" in="shadowBlurInner1" result="shadowOffsetInner1"/>
      <feComposite in="shadowOffsetInner1" in2="SourceAlpha" k2="-1" k3="1" operator="arithmetic" result="shadowInnerInner1"/>
      <feColorMatrix in="shadowInnerInner1" values="0 0 0 0 0 0 0 0 0 0 0 0 0 0 0 0 0 0 0.5 0"/>
    </filter>
    <path id="a" d="M3.8458278 0H124.154172c1.337278 0 1.822208.13923842 2.311097.40069906.488888.26146064.872571.6451435 1.134032 1.13403238.261461.48888889.400699.97381825.400699 2.31109636V124.154172c0 1.337278-.139238 1.822208-.400699 2.311097-.261461.488888-.645144.872571-1.134032 1.134032-.488889.261461-.973819.400699-2.311097.400699H3.8458278c-1.33727811 0-1.82220747-.139238-2.31109636-.400699-.48888888-.261461-.87257175-.645144-1.13403238-1.134032C.13923842 125.97638 0 125.49145 0 124.154172V3.8458278c0-1.33727811.13923842-1.82220747.40069906-2.31109636.26146064-.48888888.6451435-.87257175 1.13403238-1.13403238C2.02362033.13923842 2.50854969 0 3.8458278 0Z"/>
  </defs>
  <g fill="none" fill-rule="evenodd">
    <use xlink:href="#a" fill="#FFF"/>
    <use xlink:href="#a" fill="#000" filter="url(#b)"/>
    <path stroke="#333" stroke-linejoin="square" stroke-width="4" d="M124.154172 2c.770884 0 1.078534.00957135 1.367899.16432545.468358.60296873.477929.91061869.477929 1.68150235V124.154172c0 .770884-.009571 1.078534-.164325 1.367899-.602969.468358-.910619.477929-1.681503.477929H3.8458278c-.77088366 0-1.07853362-.009571-1.36789864-.164325C2.00957135 125.232706 2 124.925056 2 124.154172L2.00027788 3.66250009c.00232556-.63870397.02218964-.91931966.16404757-1.18457093C2.76729418 2.00957135 3.07494414 2 3.8458278 2H124.154172Z"/>
    <path stroke="#333" stroke-linecap="round" stroke-width="4" d="M64 3v122"/>
    <g stroke="#333" stroke-width="3">
      <path d="M9.9794 38.974086c10.9976028-7.54835468-3.43352949.68922187 16.6636439-.73425465 4.0719942-.28841808 7.4369613-4.09979194 11.5187267-4.15906477 28.1568051-.4088754-6.0925218 8.68151699 16.321334 1.64907774M9.9794 58.974086c10.9976028-7.5483547-3.43352949.6892219 16.6636439-.7342546 4.0719942-.2884181 7.4369613-4.099792 11.5187267-4.1590648 28.1568051-.4088754-6.0925218 8.681517 16.321334 1.6490777M9.9794 78.974086c10.9976028-7.5483547-3.43352949.6892219 16.6636439-.7342546 4.0719942-.2884181 7.4369613-4.099792 11.5187267-4.1590648 28.1568051-.4088754-6.0925218 8.681517 16.321334 1.6490777"/>
    </g>
    <g stroke="#333" stroke-width="3">
      <path d="M73.9794 38.974086c10.9976028-7.54835468-3.43352949.68922187 16.6636439-.73425465 4.0719942-.28841808 7.4369613-4.09979194 11.5187267-4.15906477 28.1568051-.4088754-6.0925218 8.68151699 16.321334 1.64907774M73.9794 58.974086c10.9976028-7.5483547-3.43352949.6892219 16.6636439-.7342546 4.0719942-.2884181 7.4369613-4.099792 11.5187267-4.1590648 28.1568051-.4088754-6.0925218 8.681517 16.321334 1.6490777M73.9794 78.974086c10.9976028-7.5483547-3.43352949.6892219 16.6636439-.7342546 4.0719942-.2884181 7.4369613-4.099792 11.5187267-4.1590648 28.1568051-.4088754-6.0925218 8.681517 16.321334 1.6490777"/>
    </g>
  </g>
</svg>
