<svg xmlns="http://www.w3.org/2000/svg" width="128" height="180.580157">
  <g fill="none" fill-rule="evenodd">
    <path fill="#FFF" d="M66.6990768 1.04788475 124.870274 54.2329628c.363329.279204.702003.5889038 1.012192.9252708l.513658.4698085c.808277.7389967 1.243693 1.7334625 1.295668 2.7471261.20086.700264.308208 1.4400904.308208 2.2049892V172.580157c0 4.418278-3.581722 8-8 8H8c-4.418278 0-8-3.581722-8-8V60.5801574c0-.7656301.10755331-1.5061398.3083754-2.2072445l-.00542255.2072445c0-1.1230291.47209537-2.1943298 1.3009232-2.9521153l.51365844-.4698085c.31018895-.336367.64886229-.6460668 1.01219156-.9252708L61.3009232 1.04788475c1.5281653-1.39717967 3.8699883-1.39717967 5.3981536 0Z"/>
    <path fill="#333" d="M49 121.580157h31v59H49zM14 77.5801574h25v25H14zM89 77.5801574h25v25H89z"/>
    <circle cx="72.5" cy="151.080157" r="3.5" fill="#FFF"/>
  </g>
</svg>
