<svg xmlns="http://www.w3.org/2000/svg" width="574.699367" height="686.233935">
  <g fill="none" fill-rule="evenodd">
    <g fill="#FFF">
      <path d="m216.6697789 58.5346 6.7028277 16.3134319c7.8611349 19.1325361-1.2761408 41.0152291-20.4086767 48.8763641-4.5160866 1.85556-9.3514121 2.810204-14.2338439 2.810204-20.6845684 0-37.4527242-16.768156-37.4527242-37.4527242 0-4.8824318.9546437-9.7177573 2.8102036-14.2338439L160.790393 58.5346c6.3401188-15.4306663 23.9888273-22.8000112 39.4194936-16.4598923 7.4652799 3.067318 13.3925743 8.9946124 16.4598923 16.4598923Z"/>
      <path d="m263.796972 58.5346 6.702828 16.3134319c7.861134 19.1325361-1.276141 41.0152291-20.408677 48.8763641-4.516087 1.85556-9.351412 2.810204-14.233844 2.810204-20.6845684 0-37.4527242-16.768156-37.4527242-37.4527242 0-4.8824318.9546436-9.7177573 2.8102035-14.2338439L207.917586 58.5346c6.3401188-15.4306663 23.9888272-22.8000112 39.419494-16.4598923 7.465279 3.067318 13.392574 8.9946124 16.459892 16.4598923Z"/>
      <path d="m309.577674 58.5346 6.702827 16.3134319c7.861135 19.1325361-1.276141 41.0152291-20.408676 48.8763641-4.516087 1.85556-9.351412 2.810204-14.233844 2.810204-20.684569 0-37.452724-16.768156-37.452724-37.4527242 0-4.8824318.954643-9.7177573 2.810203-14.2338439L253.698288 58.5346c6.340119-15.4306663 23.988827-22.8000112 39.419493-16.4598923 7.46528 3.067318 13.392575 8.9946124 16.459893 16.4598923Z"/>
      <path d="m355.358375 58.5346 6.702828 16.3134319c7.861135 19.1325361-1.276141 41.0152291-20.408677 48.8763641-4.516086 1.85556-9.351412 2.810204-14.233844 2.810204-20.684568 0-37.452724-16.768156-37.452724-37.4527242 0-4.8824318.954644-9.7177573 2.810204-14.2338439L299.478989 58.5346c6.340119-15.4306663 23.988828-22.8000112 39.419494-16.4598923 7.46528 3.067318 13.392574 8.9946124 16.459892 16.4598923Z"/>
      <path d="m411.911007 58.5346 6.702828 16.3134319c7.861135 19.1325361-1.276141 41.0152291-20.408677 48.8763641-4.516087 1.85556-9.351412 2.810204-14.233844 2.810204-20.684568 0-37.452724-16.768156-37.452724-37.4527242 0-4.8824318.954644-9.7177573 2.810203-14.2338439L356.031621 58.5346c6.340119-15.4306663 23.988827-22.8000112 39.419494-16.4598923 7.46528 3.067318 13.392574 8.9946124 16.459892 16.4598923ZM257.6686759 11.4479225l10.04911175-4.68597776c8.008556-3.73466902 17.52824333-.2697862 21.26273327 7.73885332.00002785.00005972.0000557.00011945-.00009594.00026276l21.75800928 46.66170637c3.73417907 8.0086993.26927436 17.52826398-7.73921186 21.26290046L292.95011157 87.111645c-8.00855596 3.73466912-17.5282433.26978629-21.26273323-7.73885323-.00002785-.00005972-.0000557-.00011945.0000959-.00026285l-21.75800928-46.66170637c-3.73417998-8.00869887-.26927523-17.52826347 7.73921095-21.26290004Z"/>
    </g>
    <path fill="#FFF" d="M474.677461 111.5346c15.524509 0 30.835816 3.614509 44.721359 10.557281 49.39785 24.698925 69.420285 84.766229 44.72136 134.164079l-54.766741 109.532296c-5.906342-.861547-11.98094-1.31061-18.180286-1.31061-58.330756 0-105.617176 39.756735-105.617176 88.799154 0 29.704896 17.347974 56.003153 43.990477 72.123721L376.78145 630.93342c-9.676371 19.352741-25.36862 35.04499-44.72136 44.72136-49.39785 24.698925-109.465154 4.67649-134.164079-44.72136L10.5572809 256.25596C3.61450918 242.370416 0 227.05911 0 211.5346c0-55.228475 44.771525-100 100-100Z"/>
    <g fill="#333" transform="translate(83.8432 165.5395)">
      <ellipse cx="56.319845" cy="28.4648157" rx="11.4440616" ry="26.2666224" transform="rotate(17 56.3198 28.4648)"/>
      <ellipse cx="149.665335" cy="55.4063974" rx="9.83854508" ry="26.2666867" transform="rotate(1 149.6653 55.4064)"/>
      <ellipse cx="141.563588" cy="168.560398" rx="9.83854508" ry="26.2668104" transform="rotate(1 141.5636 168.5604)"/>
      <ellipse cx="264.247212" cy="168.560398" rx="9.83854508" ry="26.2668104" transform="rotate(1 264.2472 168.5604)"/>
      <ellipse cx="264.247212" cy="59.4474925" rx="9.83854508" ry="26.2668104" transform="rotate(1 264.2472 59.4475)"/>
      <ellipse cx="264.247212" cy="59.4474925" rx="9.83854508" ry="26.2668104" transform="rotate(1 264.2472 59.4475)"/>
      <ellipse cx="18.6236277" cy="137.577721" rx="11.4440616" ry="26.2666224" transform="rotate(17 18.6236 137.5777)"/>
      <ellipse cx="337.695181" cy="28.4648157" rx="11.4440616" ry="26.2666224" transform="scale(-1 1) rotate(17 0 -2231.10654413)"/>
      <ellipse cx="375.391455" cy="137.577906" rx="11.4440616" ry="26.2664288" transform="scale(-1 1) rotate(17 0 -2374.22527704)"/>
    </g>
    <g transform="translate(233.8507 428.5346)">
      <ellipse cx="53.5" cy="47" fill="#333" rx="53.5" ry="47"/>
      <ellipse cx="53.5" cy="47" fill="#FFF" rx="27.5142857" ry="24.1714286"/>
    </g>
  </g>
</svg>
