<svg xmlns="http://www.w3.org/2000/svg" width="92" height="116">
  <g fill="none" fill-rule="evenodd">
    <ellipse cx="46" cy="44.5" stroke="#FFF" stroke-width="8" rx="34" ry="40.5"/>
    <rect width="92" height="92" y="24" fill="#FFF" rx="8"/>
    <g fill="#333" fill-rule="nonzero">
      <path d="m42.11491491 52.07505741.42178538.94160711c.49467359 1.10432509-.08030305 2.36738853-1.28424627 2.82113122C40.96827257 55.94489819 40.66400253 56 40.35676826 56 39.05516109 56 38 55.03214633 38 53.83823835c0-.28181272.06007237-.56090647.17683623-.82157383l.42178538-.94160711c.39896139-.89065411 1.50953256-1.31601081 2.48053015-.95006077.46976382.17704481.84274761.51916673 1.03576315.95006077Z"/>
      <path d="m45.08046349 52.07505741.4217854.94160711c.49467353 1.10432509-.08030306 2.36738853-1.28424629 2.82113122C43.93382112 55.94489819 43.62955112 56 43.32231684 56c-1.30160717 0-2.35676827-.96785367-2.35676827-2.16176165 0-.28181272.06007237-.56090647.17683623-.82157383l.42178538-.94160711c.39896139-.89065411 1.50953256-1.31601081 2.48053017-.95006077.46976377.17704481.8427476.51916673 1.03576314.95006077Z"/>
      <path d="m47.96128212 52.07505741.42178538.94160711c.4946735 1.10432509-.0803031 2.36738853-1.28424627 2.82113122C46.81463975 55.94489819 46.51036975 56 46.20313547 56c-1.30160721 0-2.35676826-.96785367-2.35676826-2.16176165 0-.28181272.06007233-.56090647.1768362-.82157383l.4217854-.94160711c.3989614-.89065411 1.50953255-1.31601081 2.48053011-.95006077.46976383.17704481.84274766.51916673 1.0357632.95006077Z"/>
      <path d="m50.8421007 52.07505741.4217854.94160711c.4946736 1.10432509-.0803031 2.36738853-1.2842463 2.82113122C49.6954584 55.94489819 49.3911883 56 49.083954 56c-1.30160711 0-2.35676822-.96785367-2.35676822-2.16176165 0-.28181272.06007239-.56090647.17683626-.82157383l.42178534-.94160711c.3989614-.89065411 1.50953262-1.31601081 2.48053012-.95006077.4697639.17704481.8427476.51916673 1.0357632.95006077Z"/>
      <path d="m54.400759 52.07505741.4217854.94160711c.4946736 1.10432509-.0803031 2.36738853-1.2842463 2.82113122C53.2541166 55.94489819 52.9498466 56 52.6426123 56c-1.3016071 0-2.3567682-.96785367-2.3567682-2.16176165 0-.28181272.0600724-.56090647.1768362-.82157383l.4217854-.94160711c.3989614-.89065411 1.5095325-1.31601081 2.4805302-.95006077.4697638.17704481.8427476.51916673 1.0357631.95006077Zm-9.70592764-2.71783097.63235528-.27047344c.50395027-.21556414 1.10299073-.01557199 1.33798905.44668464.00000175.00000344.0000035.0000069-.00000604.00001516l1.36915505 2.69330175c.2349787.46226007.0169445 1.01172691-.48700141 1.22728917l-.63235522.27047341c-.50395027.21556415-1.10299073.015572-1.33798905-.44668463-.00000175-.00000344-.0000035-.00000689.00000604-.00001517l-1.36915503-2.69330174c-.23497882-.46226005-.01694455-1.01172688.48700133-1.22728915ZM57.9085252 56c.9454645 0 1.8779446.22012868 2.7235937.64295327 3.0083986 1.50419928 4.227793 5.16238263 2.7235938 8.17078113l-3.3353716 6.670671c-.3597046-.0524695-.7296561-.079818-1.107205-.079818-3.5524251 0-6.4322346 2.4212411-6.4322346 5.4079934 0 1.80907 1.056516 3.4106708 2.6790819 4.3924361l-3.213463 6.427102c-.5893046 1.1786092-1.5449846 2.1342892-2.7235937 2.7235938-3.0083986 1.5041992-6.6665819.2848048-8.1707812-2.7235938L29.64295326 64.8137344C29.2201287 63.9680853 29 63.0356052 29 62.0901407 29 58.72664886 31.72664886 56 35.0901407 56h22.8183845Z"/>
    </g>
  </g>
</svg>
